<svg width="1440" height="1192" viewBox="0 0 1440 1192" fill="none" xmlns="http://www.w3.org/2000/svg">
<g clip-path="url(#clip0)">
<path d="M-100.271 -9.56118C-105.459 -3.36754 -109.962 0.486576 -118.174 -0.959622C-126.387 -2.40582 -133.121 -10.6988 -131.627 -19.183C-130.553 -25.281 -125.599 -30.149 -121.486 -34.8918L36.7654 -221.607C41.9065 -227.535 46.6426 -232.715 54.8554 -231.269C63.333 -229.776 69.5371 -221.576 68.0432 -213.092C67.1094 -207.789 64.8662 -204.357 62.3581 -200.972L-100.271 -9.56118Z" fill="#F8C8DE" stroke="#F8C8DE" stroke-width="3" stroke-miterlimit="10"/>
<path d="M313.94 82.7859C312.412 80.6035 311.991 78.3425 312.411 75.9563L354.804 -164.783C355.27 -167.434 356.485 -169.68 358.667 -171.21C360.848 -172.739 363.107 -173.161 365.757 -172.695L463.25 -155.527C499.81 -149.089 526.617 -135.348 543.935 -114.257C560.988 -93.213 567.461 -66.3779 562.514 -33.6269C561.518 -26.4217 559.837 -16.8769 557.736 -4.94603C555.635 6.98487 554.001 16.2645 552.523 23.1112C538.233 90.2998 493.842 117.472 419.398 104.363L320.05 86.8687C317.401 86.4022 315.468 84.9684 313.94 82.7859ZM427.348 48.3589C442.978 51.1114 455.024 49.4055 463.749 43.2881C472.474 37.1707 478.549 25.9395 481.927 9.85985C483.717 2.79461 485.616 -6.43833 487.624 -17.839C489.631 -29.2396 490.954 -38.3007 491.638 -45.2874C493.909 -61.2886 491.725 -73.7008 485.084 -82.524C478.443 -91.3472 467.222 -97.4235 451.591 -100.176L416.356 -106.381L390.258 41.8277L427.348 48.3589V48.3589Z" fill="#1E1E1E"/>
<path d="M580.457 129.717C578.93 127.535 578.508 125.274 578.929 122.888L621.367 -118.116C621.834 -120.768 623.049 -123.014 625.184 -124.278C627.365 -125.808 629.625 -126.23 632.009 -125.81L684.995 -116.48C687.644 -116.013 689.888 -114.798 691.151 -112.662C692.679 -110.48 693.1 -108.219 692.633 -105.567L650.194 135.437C649.774 137.823 648.606 139.804 646.424 141.334C644.243 142.863 641.984 143.285 639.334 142.819L586.349 133.488C583.918 133.334 581.985 131.9 580.457 129.717Z" fill="#1E1E1E"/>
<path d="M702.324 151.177C700.796 148.995 700.375 146.734 700.795 144.347L743.187 -96.3916C743.654 -99.0429 744.869 -101.289 747.051 -102.818C749.232 -104.348 751.491 -104.77 754.141 -104.304L928.993 -73.5135C931.642 -73.047 933.886 -71.8317 935.414 -69.6493C936.942 -67.4668 937.316 -64.9406 936.849 -62.2893L930.407 -25.7012C929.94 -23.0499 928.725 -20.8037 926.59 -19.5395C924.409 -18.0101 921.884 -17.6346 919.235 -18.1011L802.137 -38.7211L793.827 8.47224L902.712 27.646C905.361 28.1125 907.606 29.3278 909.133 31.5103C910.661 33.6928 911.036 36.2189 910.569 38.8702L904.593 72.807C904.126 75.4583 902.911 77.7045 900.73 79.2339C898.548 80.7632 896.024 81.1388 893.375 80.6722L784.489 61.4985L775.992 109.752L896.004 130.885C898.654 131.352 900.898 132.567 902.426 134.75C903.953 136.932 904.328 139.458 903.861 142.11L897.418 178.698C896.951 181.349 895.736 183.595 893.602 184.859C891.42 186.389 888.896 186.764 886.247 186.298L708.48 154.995C705.784 154.793 703.852 153.36 702.324 151.177Z" fill="#1E1E1E"/>
<path d="M1329.14 261.555C1327.62 259.372 1327.19 257.111 1327.61 254.725L1370.05 13.7209C1370.52 11.0696 1371.74 8.82334 1373.87 7.55911C1376.05 6.02975 1378.31 5.60758 1380.69 6.02745L1432.62 15.1711C1435.27 15.6377 1437.51 16.8529 1438.78 18.9887C1440.3 21.1712 1440.73 23.4322 1440.26 26.0835L1406.46 218.038L1517.73 237.632C1520.38 238.099 1522.62 239.314 1524.15 241.496C1525.68 243.679 1526.05 246.205 1525.58 248.856L1518.67 288.096C1518.21 290.747 1516.99 292.993 1514.86 294.257C1512.68 295.787 1510.15 296.162 1507.5 295.696L1335.3 265.372C1332.6 265.171 1330.67 263.737 1329.14 261.555Z" fill="#1E1E1E"/>
<path d="M-256.466 441.574C-257.775 439.704 -258.243 437.708 -257.916 435.852C-257.823 435.322 -257.324 434.042 -256.468 432.28C-238.165 399.694 -219.519 368.261 -200.265 338.029C-180.965 307.532 -152.317 265.834 -114.228 212.403C-112.655 209.673 -110.645 207.567 -107.622 205.913C-104.911 204.477 -101.545 203.976 -97.8364 204.629L118.61 242.743C121.259 243.21 123.503 244.425 125.031 246.608C126.558 248.79 126.933 251.316 126.466 253.968L120.023 290.556C119.556 293.207 118.341 295.453 116.207 296.717C114.026 298.247 111.501 298.622 108.852 298.156L-1.09315 278.795L-9.40351 325.989L92.0638 343.856C94.7131 344.323 96.9574 345.538 98.4851 347.721C100.013 349.903 100.387 352.429 99.9205 355.08L93.9912 388.752C93.5243 391.403 92.3093 393.65 90.128 395.179C87.9467 396.708 85.4223 397.084 82.773 396.617L-18.6943 378.75L-27.1914 427.004L85.4029 446.831C88.0522 447.297 90.2965 448.512 91.8241 450.695C93.3518 452.877 93.7264 455.403 93.2595 458.055L86.8167 494.643C86.3498 497.294 85.1348 499.54 83.0002 500.805C80.8189 502.334 78.2945 502.709 75.6452 502.243L-94.7033 472.246C-97.0877 471.826 -99.067 470.658 -100.595 468.475C-102.122 466.293 -102.544 464.032 -102.123 461.645L-96.0074 426.913L-165.683 414.644C-177.679 430.026 -185.39 441.242 -188.988 447.716C-191.823 452.957 -196.529 454.862 -202.622 453.789L-251.104 445.252C-253.442 444.567 -255.156 443.445 -256.466 441.574ZM-139.189 361.905L-86.468 371.189L-68.2599 267.788L-76.4727 266.342L-139.189 361.905Z" fill="#1E1E1E"/>
<path d="M333.84 545.249C332.313 543.066 331.891 540.805 332.358 538.154L365.786 348.32L300.349 336.797C297.7 336.331 295.456 335.115 293.928 332.933C292.4 330.75 291.979 328.489 292.446 325.838L299.776 284.213C300.243 281.561 301.458 279.315 303.639 277.786C305.82 276.256 308.345 275.881 310.994 276.347L512.074 311.756C514.723 312.222 516.968 313.438 518.495 315.62C520.023 317.803 520.398 320.329 519.931 322.98L512.601 364.606C512.134 367.257 510.919 369.503 508.784 370.767C506.603 372.297 504.079 372.672 501.429 372.206L436.257 360.729L402.829 550.563C402.362 553.215 401.147 555.461 399.013 556.725C396.831 558.254 394.307 558.63 391.658 558.163L340.262 549.113C337.347 548.6 335.368 547.431 333.84 545.249Z" fill="#1E1E1E"/>
<path d="M725.45 613.935C723.922 611.752 723.548 609.226 724.015 606.575L730.691 568.661C731.251 565.479 732.201 563.187 733.588 561.517C734.974 559.848 736.626 558.225 738.589 556.384L881.366 435.829L770.891 416.375C768.507 415.956 766.527 414.787 765 412.605C763.472 410.422 763.051 408.161 763.471 405.775L770.241 367.331C770.708 364.68 771.923 362.433 774.104 360.904C776.285 359.375 778.545 358.952 781.194 359.419L969.822 392.635C972.472 393.101 974.716 394.317 976.244 396.499C977.771 398.682 978.146 401.208 977.679 403.859L971.096 441.242C970.256 446.015 967.919 449.977 964.086 453.129L825.501 574.696L938.89 594.662C941.54 595.129 943.784 596.344 945.312 598.527C946.839 600.709 947.214 603.235 946.747 605.887L939.837 645.126C939.371 647.777 938.156 650.024 936.021 651.288C933.84 652.817 931.315 653.193 928.666 652.726L731.56 618.017C728.91 617.551 726.978 616.117 725.45 613.935Z" fill="#1E1E1E"/>
<path d="M1036.43 668.969C1034.9 666.786 1034.48 664.525 1034.95 661.874L1068.37 472.04L1003.2 460.564C1000.55 460.097 998.309 458.882 996.781 456.7C995.253 454.517 994.832 452.256 995.299 449.605L1002.63 407.979C1003.1 405.328 1004.31 403.082 1006.49 401.552C1008.67 400.023 1011.2 399.647 1013.85 400.114L1214.93 435.522C1217.58 435.989 1219.82 437.204 1221.35 439.387C1222.88 441.569 1223.25 444.095 1222.78 446.747L1215.45 488.372C1214.99 491.023 1213.77 493.27 1211.64 494.534C1209.46 496.063 1206.93 496.439 1204.28 495.972L1139.11 484.496L1105.68 674.33C1105.21 676.981 1104 679.227 1101.87 680.492C1099.68 682.021 1097.16 682.397 1094.51 681.93L1043.11 672.88C1040.2 672.366 1037.96 671.151 1036.43 668.969Z" fill="#1E1E1E"/>
<path d="M1214.77 700.1C1213.24 697.918 1212.82 695.657 1213.24 693.27L1255.63 452.531C1256.1 449.88 1257.32 447.634 1259.5 446.105C1261.68 444.575 1263.94 444.153 1266.59 444.619L1308.45 451.99C1314.01 452.97 1317.83 456.103 1319.9 461.388L1382.96 615.182L1406.86 479.435C1407.33 476.783 1408.54 474.537 1410.72 473.008C1412.91 471.478 1415.17 471.056 1417.82 471.523L1464.97 479.827C1467.62 480.293 1469.87 481.508 1471.13 483.644C1472.66 485.827 1473.03 488.353 1472.56 491.004L1430.27 731.213C1429.8 733.864 1428.58 736.11 1426.4 737.64C1424.22 739.169 1421.96 739.591 1419.31 739.125L1377.45 731.754C1371.89 730.774 1368.07 727.642 1366 722.356L1301.92 574.395L1278.94 704.84C1278.48 707.491 1277.26 709.738 1275.13 711.002C1272.95 712.531 1270.42 712.907 1267.77 712.44L1220.62 704.136C1218.23 703.716 1216.3 702.283 1214.77 700.1Z" fill="#1E1E1E"/>
<path d="M-66.1702 933.769C-67.4797 931.898 -67.9476 929.902 -67.6208 928.046C-67.3407 926.456 -67.154 925.395 -66.749 924.646L61.4494 702.297C65.0943 695.559 70.7815 692.733 78.1995 694.039L135.954 704.209C143.372 705.516 147.752 710.114 148.876 717.692L193.41 970.458C193.535 971.3 193.348 972.361 193.068 973.952C192.741 975.808 191.62 977.523 189.75 978.834C187.88 980.145 185.886 980.614 184.031 980.287L135.814 971.797C129.986 970.771 126.214 967.373 124.545 961.339L117.648 922.948L20.6847 905.874L1.08884 939.599C-2.27595 944.747 -6.98168 946.652 -13.075 945.579L-61.2919 937.088C-63.1463 936.762 -64.8608 935.64 -66.1702 933.769ZM46.0731 853.214L111.775 864.783L95.5915 764.347L46.0731 853.214Z" fill="#1E1E1E"/>
<path d="M377.158 991.061C360.105 970.016 353.632 943.182 358.003 910.602C358.952 903.662 360.959 892.262 363.667 876.884C366.422 861.241 368.429 849.841 369.955 842.729C376.477 811.895 391.634 789.415 415.022 776.039C438.721 762.445 468.032 758.859 503.532 765.11C527.111 769.262 547.386 776.659 563.518 787.427C579.914 798.242 591.433 810.384 598.604 823.948C605.776 837.511 608.35 850.812 606.686 863.367C606.312 865.488 605.144 867.469 603.274 868.78C601.405 870.091 599.41 870.56 597.026 870.14L539.537 860.016C537.152 859.596 535.126 858.693 533.942 857.664C532.757 856.636 531.666 855.077 530.668 852.988C528.968 845.581 525.226 838.908 519.49 832.705C513.754 826.501 505.166 822.529 493.245 820.429C464.633 815.391 447.182 827.626 440.893 857.134C439.415 863.981 437.547 874.586 435.026 888.903C432.505 903.22 430.591 914.09 429.595 921.296C425.146 952.768 437.445 971.335 466.587 976.466C480.893 978.985 492.939 977.28 502.677 971.614C512.415 965.948 518.568 955.824 521.136 941.242L522.303 934.614L489.452 928.829C486.803 928.363 484.559 927.147 483.031 924.965C481.503 922.782 481.129 920.256 481.596 917.605L486.685 888.706C487.152 886.054 488.366 883.808 490.548 882.279C492.729 880.749 495.254 880.374 497.903 880.84L592.217 897.448C594.866 897.915 597.111 899.13 598.638 901.312C600.166 903.495 600.541 906.021 600.074 908.672L592.51 951.624C588.822 972.569 580.832 990.023 568.368 1003.41C555.905 1016.8 540.074 1026.04 520.924 1030.86C501.773 1035.69 480.408 1036.03 456.565 1031.83C421.018 1025.85 394.476 1012.15 377.158 991.061Z" fill="#1E1E1E"/>
<path d="M645 1038.23C627.947 1017.18 621.473 990.346 625.845 957.767C626.794 950.827 628.801 939.426 631.509 924.048C634.264 908.406 636.271 897.005 637.797 889.893C644.319 859.059 659.476 836.58 682.863 823.204C706.562 809.609 735.874 806.023 771.374 812.275C794.953 816.427 815.228 823.824 831.36 834.592C847.756 845.406 859.275 857.549 866.446 871.112C873.618 884.676 876.192 897.977 874.528 910.531C874.154 912.652 872.986 914.634 871.116 915.944C869.247 917.255 867.252 917.724 864.868 917.304L807.379 907.181C804.994 906.761 802.968 905.858 801.784 904.829C800.599 903.8 799.508 902.241 798.51 900.152C796.81 892.746 793.068 886.073 787.332 879.869C781.596 873.665 773.008 869.693 761.087 867.594C732.474 862.555 715.024 874.79 708.735 904.298C707.257 911.145 705.389 921.75 702.868 936.067C700.347 950.385 698.433 961.255 697.437 968.46C692.988 999.932 705.287 1018.5 734.429 1023.63C748.735 1026.15 760.781 1024.44 770.519 1018.78C780.257 1013.11 786.41 1002.99 788.978 988.407L790.145 981.778L757.294 975.994C754.645 975.527 752.401 974.312 750.873 972.129C749.345 969.947 748.971 967.421 749.438 964.769L754.527 935.87C754.993 933.219 756.208 930.973 758.39 929.443C760.571 927.914 763.096 927.538 765.745 928.005L859.794 944.566C862.443 945.033 864.688 946.248 866.215 948.43C867.743 950.613 868.118 953.139 867.651 955.79L860.087 998.742C856.399 1019.69 848.409 1037.14 835.945 1050.53C823.482 1063.91 807.651 1073.15 788.501 1077.98C769.35 1082.81 747.985 1083.15 724.142 1078.95C688.86 1073.01 662.318 1059.32 645 1038.23Z" fill="#1E1E1E"/>
<path d="M1121.06 1142.28C1119.54 1140.1 1119.12 1137.84 1119.54 1135.45L1161.93 894.716C1162.39 892.064 1163.61 889.818 1165.79 888.289C1167.97 886.759 1170.23 886.337 1172.88 886.804L1214.74 894.175C1220.3 895.154 1224.12 898.287 1226.2 903.572L1289.25 1057.37L1313.15 921.619C1313.62 918.967 1314.84 916.721 1317.02 915.192C1319.2 913.662 1321.46 913.24 1324.11 913.707L1371.27 922.011C1373.91 922.477 1376.16 923.693 1377.42 925.828C1378.95 928.011 1379.32 930.537 1378.86 933.188L1336.56 1173.4C1336.09 1176.05 1334.88 1178.29 1332.69 1179.82C1330.51 1181.35 1328.25 1181.78 1325.6 1181.31L1283.75 1173.94C1278.18 1172.96 1274.36 1169.83 1272.29 1164.54L1208.52 1016.36L1185.55 1146.81C1185.08 1149.46 1183.87 1151.7 1181.73 1152.97C1179.55 1154.5 1177.03 1154.87 1174.38 1154.41L1127.22 1146.1C1124.79 1145.95 1122.59 1144.47 1121.06 1142.28Z" fill="#1E1E1E"/>
</g>
<defs>
<clipPath id="clip0">
<rect width="1724.05" height="1178.6" fill="white" transform="translate(-133.868 -268.602) rotate(9.98692)"/>
</clipPath>
</defs>
</svg>
